<mxfile host="www.draw.io" modified="2023-05-30T03:25:58.171Z" agent="Mozilla/5.0 (Windows NT 10.0; Win64; x64) AppleWebKit/537.36 (KHTML, like Gecko) Chrome/113.0.0.0 Safari/537.36" etag="IhzdLxp2X0NQxvno5qF-" version="21.3.3" type="device">
  <diagram name="第 1 页" id="hVcuFqrxhJGEpqLaIdHg">
    <mxGraphModel dx="2261" dy="700" grid="1" gridSize="10" guides="1" tooltips="1" connect="1" arrows="1" fold="1" page="1" pageScale="1" pageWidth="827" pageHeight="1169" math="0" shadow="0">
      <root>
        <mxCell id="0" />
        <mxCell id="1" parent="0" />
        <mxCell id="Key7oZ6OFy4_Byqaz6_J-43" value="" style="ellipse;whiteSpace=wrap;html=1;dashed=1;dashPattern=12 12;" vertex="1" parent="1">
          <mxGeometry x="150" y="170" width="590" height="490" as="geometry" />
        </mxCell>
        <mxCell id="Key7oZ6OFy4_Byqaz6_J-28" value="" style="ellipse;whiteSpace=wrap;html=1;dashed=1;" vertex="1" parent="1">
          <mxGeometry x="-250" y="245" width="210" height="210" as="geometry" />
        </mxCell>
        <mxCell id="Key7oZ6OFy4_Byqaz6_J-14" value="" style="ellipse;whiteSpace=wrap;html=1;dashed=1;" vertex="1" parent="1">
          <mxGeometry x="750" y="180" width="260" height="210" as="geometry" />
        </mxCell>
        <mxCell id="Key7oZ6OFy4_Byqaz6_J-15" style="edgeStyle=orthogonalEdgeStyle;rounded=0;orthogonalLoop=1;jettySize=auto;html=1;exitX=0.5;exitY=0;exitDx=0;exitDy=0;entryX=0.019;entryY=0.338;entryDx=0;entryDy=0;entryPerimeter=0;" edge="1" parent="1" source="Key7oZ6OFy4_Byqaz6_J-1" target="Key7oZ6OFy4_Byqaz6_J-14">
          <mxGeometry relative="1" as="geometry">
            <Array as="points">
              <mxPoint x="310" y="310" />
              <mxPoint x="310" y="251" />
            </Array>
          </mxGeometry>
        </mxCell>
        <mxCell id="Key7oZ6OFy4_Byqaz6_J-17" value="projectCode关联" style="edgeLabel;html=1;align=center;verticalAlign=middle;resizable=0;points=[];" vertex="1" connectable="0" parent="Key7oZ6OFy4_Byqaz6_J-15">
          <mxGeometry x="-0.0938" y="-1" relative="1" as="geometry">
            <mxPoint x="118" as="offset" />
          </mxGeometry>
        </mxCell>
        <mxCell id="Key7oZ6OFy4_Byqaz6_J-29" style="edgeStyle=orthogonalEdgeStyle;rounded=0;orthogonalLoop=1;jettySize=auto;html=1;exitX=0;exitY=0.5;exitDx=0;exitDy=0;entryX=1;entryY=0.5;entryDx=0;entryDy=0;" edge="1" parent="1" source="Key7oZ6OFy4_Byqaz6_J-1" target="Key7oZ6OFy4_Byqaz6_J-28">
          <mxGeometry relative="1" as="geometry">
            <Array as="points">
              <mxPoint x="210" y="350" />
            </Array>
          </mxGeometry>
        </mxCell>
        <mxCell id="Key7oZ6OFy4_Byqaz6_J-32" value="resourceCode,resourceVersion关联" style="edgeLabel;html=1;align=center;verticalAlign=middle;resizable=0;points=[];" vertex="1" connectable="0" parent="Key7oZ6OFy4_Byqaz6_J-29">
          <mxGeometry x="0.176" y="-1" relative="1" as="geometry">
            <mxPoint x="7" y="1" as="offset" />
          </mxGeometry>
        </mxCell>
        <mxCell id="Key7oZ6OFy4_Byqaz6_J-41" value="1" style="edgeLabel;html=1;align=center;verticalAlign=middle;resizable=0;points=[];" vertex="1" connectable="0" parent="Key7oZ6OFy4_Byqaz6_J-29">
          <mxGeometry x="0.824" y="3" relative="1" as="geometry">
            <mxPoint as="offset" />
          </mxGeometry>
        </mxCell>
        <mxCell id="Key7oZ6OFy4_Byqaz6_J-33" style="edgeStyle=orthogonalEdgeStyle;rounded=0;orthogonalLoop=1;jettySize=auto;html=1;exitX=0;exitY=0;exitDx=0;exitDy=0;entryX=1;entryY=0.5;entryDx=0;entryDy=0;" edge="1" parent="1" source="Key7oZ6OFy4_Byqaz6_J-1" target="Key7oZ6OFy4_Byqaz6_J-24">
          <mxGeometry relative="1" as="geometry" />
        </mxCell>
        <mxCell id="Key7oZ6OFy4_Byqaz6_J-34" value="resourceCode,resourceVersion关联" style="edgeLabel;html=1;align=center;verticalAlign=middle;resizable=0;points=[];" vertex="1" connectable="0" parent="Key7oZ6OFy4_Byqaz6_J-33">
          <mxGeometry x="0.2933" y="1" relative="1" as="geometry">
            <mxPoint as="offset" />
          </mxGeometry>
        </mxCell>
        <mxCell id="Key7oZ6OFy4_Byqaz6_J-42" value="1" style="edgeLabel;html=1;align=center;verticalAlign=middle;resizable=0;points=[];" vertex="1" connectable="0" parent="Key7oZ6OFy4_Byqaz6_J-33">
          <mxGeometry x="0.8667" relative="1" as="geometry">
            <mxPoint as="offset" />
          </mxGeometry>
        </mxCell>
        <mxCell id="Key7oZ6OFy4_Byqaz6_J-35" style="edgeStyle=orthogonalEdgeStyle;rounded=0;orthogonalLoop=1;jettySize=auto;html=1;exitX=0;exitY=1;exitDx=0;exitDy=0;entryX=0.5;entryY=0;entryDx=0;entryDy=0;" edge="1" parent="1" source="Key7oZ6OFy4_Byqaz6_J-1" target="Key7oZ6OFy4_Byqaz6_J-27">
          <mxGeometry relative="1" as="geometry" />
        </mxCell>
        <mxCell id="Key7oZ6OFy4_Byqaz6_J-36" value="resourceCode,resourceVersion关联" style="edgeLabel;html=1;align=center;verticalAlign=middle;resizable=0;points=[];" vertex="1" connectable="0" parent="Key7oZ6OFy4_Byqaz6_J-35">
          <mxGeometry x="-0.075" y="3" relative="1" as="geometry">
            <mxPoint as="offset" />
          </mxGeometry>
        </mxCell>
        <mxCell id="Key7oZ6OFy4_Byqaz6_J-40" value="1" style="edgeLabel;html=1;align=center;verticalAlign=middle;resizable=0;points=[];" vertex="1" connectable="0" parent="Key7oZ6OFy4_Byqaz6_J-35">
          <mxGeometry x="0.9286" y="1" relative="1" as="geometry">
            <mxPoint as="offset" />
          </mxGeometry>
        </mxCell>
        <mxCell id="Key7oZ6OFy4_Byqaz6_J-1" value="发布记录" style="rounded=0;whiteSpace=wrap;html=1;fillColor=#d5e8d4;strokeColor=#82b366;" vertex="1" parent="1">
          <mxGeometry x="210" y="310" width="120" height="60" as="geometry" />
        </mxCell>
        <mxCell id="Key7oZ6OFy4_Byqaz6_J-4" value="1" style="endArrow=open;html=1;endSize=12;startArrow=diamondThin;startSize=14;startFill=1;edgeStyle=orthogonalEdgeStyle;align=left;verticalAlign=bottom;rounded=0;exitX=0.5;exitY=1;exitDx=0;exitDy=0;" edge="1" parent="1" source="Key7oZ6OFy4_Byqaz6_J-1" target="Key7oZ6OFy4_Byqaz6_J-5">
          <mxGeometry x="0.8926" y="9" relative="1" as="geometry">
            <mxPoint x="210" y="530" as="sourcePoint" />
            <mxPoint x="270" y="480" as="targetPoint" />
            <Array as="points">
              <mxPoint x="270" y="448" />
              <mxPoint x="271" y="448" />
            </Array>
            <mxPoint as="offset" />
          </mxGeometry>
        </mxCell>
        <mxCell id="Key7oZ6OFy4_Byqaz6_J-5" value="资源类型" style="rounded=0;whiteSpace=wrap;html=1;" vertex="1" parent="1">
          <mxGeometry x="230" y="518" width="120" height="60" as="geometry" />
        </mxCell>
        <mxCell id="Key7oZ6OFy4_Byqaz6_J-19" value="approval_user_id关联" style="edgeStyle=orthogonalEdgeStyle;rounded=0;orthogonalLoop=1;jettySize=auto;html=1;exitX=1;exitY=0.5;exitDx=0;exitDy=0;entryX=0;entryY=0.75;entryDx=0;entryDy=0;" edge="1" parent="1" source="Key7oZ6OFy4_Byqaz6_J-7" target="Key7oZ6OFy4_Byqaz6_J-18">
          <mxGeometry relative="1" as="geometry" />
        </mxCell>
        <mxCell id="Key7oZ6OFy4_Byqaz6_J-7" value="审核状态" style="rounded=0;whiteSpace=wrap;html=1;" vertex="1" parent="1">
          <mxGeometry x="510" y="525" width="120" height="60" as="geometry" />
        </mxCell>
        <mxCell id="Key7oZ6OFy4_Byqaz6_J-8" value="1" style="endArrow=open;html=1;endSize=12;startArrow=diamondThin;startSize=14;startFill=1;edgeStyle=orthogonalEdgeStyle;align=left;verticalAlign=bottom;rounded=0;exitX=0.5;exitY=1;exitDx=0;exitDy=0;" edge="1" parent="1" source="Key7oZ6OFy4_Byqaz6_J-2">
          <mxGeometry x="-1" y="21" relative="1" as="geometry">
            <mxPoint x="569.5" y="380" as="sourcePoint" />
            <mxPoint x="569.5" y="525" as="targetPoint" />
            <mxPoint as="offset" />
          </mxGeometry>
        </mxCell>
        <mxCell id="Key7oZ6OFy4_Byqaz6_J-38" style="edgeStyle=orthogonalEdgeStyle;rounded=0;orthogonalLoop=1;jettySize=auto;html=1;exitX=0.5;exitY=0;exitDx=0;exitDy=0;" edge="1" parent="1" source="Key7oZ6OFy4_Byqaz6_J-2" target="Key7oZ6OFy4_Byqaz6_J-14">
          <mxGeometry relative="1" as="geometry" />
        </mxCell>
        <mxCell id="Key7oZ6OFy4_Byqaz6_J-39" value="projectCode关联" style="edgeLabel;html=1;align=center;verticalAlign=middle;resizable=0;points=[];" vertex="1" connectable="0" parent="Key7oZ6OFy4_Byqaz6_J-38">
          <mxGeometry x="0.0698" y="-1" relative="1" as="geometry">
            <mxPoint as="offset" />
          </mxGeometry>
        </mxCell>
        <mxCell id="Key7oZ6OFy4_Byqaz6_J-2" value="审核记录" style="rounded=0;whiteSpace=wrap;html=1;fillColor=#d5e8d4;strokeColor=#82b366;" vertex="1" parent="1">
          <mxGeometry x="510" y="320" width="120" height="60" as="geometry" />
        </mxCell>
        <mxCell id="Key7oZ6OFy4_Byqaz6_J-10" value="1" style="text;html=1;align=center;verticalAlign=middle;resizable=0;points=[];autosize=1;strokeColor=none;fillColor=none;" vertex="1" parent="1">
          <mxGeometry x="565" y="488" width="30" height="30" as="geometry" />
        </mxCell>
        <mxCell id="Key7oZ6OFy4_Byqaz6_J-12" value="项目" style="rounded=0;whiteSpace=wrap;html=1;fillColor=#d5e8d4;strokeColor=#82b366;" vertex="1" parent="1">
          <mxGeometry x="820" y="210" width="120" height="60" as="geometry" />
        </mxCell>
        <mxCell id="Key7oZ6OFy4_Byqaz6_J-13" value="项目授权权限" style="rounded=0;whiteSpace=wrap;html=1;fillColor=#d5e8d4;strokeColor=#82b366;" vertex="1" parent="1">
          <mxGeometry x="820" y="290" width="120" height="60" as="geometry" />
        </mxCell>
        <mxCell id="Key7oZ6OFy4_Byqaz6_J-18" value="用户" style="rounded=0;whiteSpace=wrap;html=1;fillColor=#d5e8d4;strokeColor=#82b366;" vertex="1" parent="1">
          <mxGeometry x="860" y="510" width="120" height="60" as="geometry" />
        </mxCell>
        <mxCell id="Key7oZ6OFy4_Byqaz6_J-20" value="1" style="endArrow=open;html=1;endSize=12;startArrow=diamondThin;startSize=14;startFill=1;edgeStyle=orthogonalEdgeStyle;align=left;verticalAlign=bottom;rounded=0;entryX=0;entryY=0.5;entryDx=0;entryDy=0;" edge="1" parent="1" target="Key7oZ6OFy4_Byqaz6_J-2">
          <mxGeometry x="-0.8892" relative="1" as="geometry">
            <mxPoint x="330" y="350" as="sourcePoint" />
            <mxPoint x="490" y="350" as="targetPoint" />
            <mxPoint as="offset" />
          </mxGeometry>
        </mxCell>
        <mxCell id="Key7oZ6OFy4_Byqaz6_J-23" value="*" style="edgeLabel;html=1;align=center;verticalAlign=middle;resizable=0;points=[];fontSize=19;" vertex="1" connectable="0" parent="Key7oZ6OFy4_Byqaz6_J-20">
          <mxGeometry x="0.8449" y="1" relative="1" as="geometry">
            <mxPoint x="-6" y="1" as="offset" />
          </mxGeometry>
        </mxCell>
        <mxCell id="Key7oZ6OFy4_Byqaz6_J-24" value="表" style="rounded=0;whiteSpace=wrap;html=1;fillColor=#d5e8d4;strokeColor=#82b366;" vertex="1" parent="1">
          <mxGeometry x="-200" y="130" width="120" height="60" as="geometry" />
        </mxCell>
        <mxCell id="Key7oZ6OFy4_Byqaz6_J-25" value="文件" style="rounded=0;whiteSpace=wrap;html=1;fillColor=#d5e8d4;strokeColor=#82b366;" vertex="1" parent="1">
          <mxGeometry x="-200" y="280" width="120" height="60" as="geometry" />
        </mxCell>
        <mxCell id="Key7oZ6OFy4_Byqaz6_J-26" value="udf" style="rounded=0;whiteSpace=wrap;html=1;fillColor=#d5e8d4;strokeColor=#82b366;" vertex="1" parent="1">
          <mxGeometry x="-200" y="360" width="120" height="60" as="geometry" />
        </mxCell>
        <mxCell id="Key7oZ6OFy4_Byqaz6_J-27" value="工作流" style="rounded=0;whiteSpace=wrap;html=1;fillColor=#d5e8d4;strokeColor=#82b366;" vertex="1" parent="1">
          <mxGeometry x="-205" y="600" width="120" height="60" as="geometry" />
        </mxCell>
      </root>
    </mxGraphModel>
  </diagram>
</mxfile>
